<svg width="369" height="458" viewBox="0 0 369 458" fill="none" xmlns="http://www.w3.org/2000/svg">
<g clip-path="url(#clip0)">
<path d="M394.405 427.823L303.507 484.249C255.293 514.179 197.163 523.73 141.906 510.801C86.6489 497.872 38.7913 463.521 8.86116 415.307L99.7583 358.881C147.973 328.95 206.103 319.399 261.36 332.329C316.617 345.258 364.474 379.608 394.405 427.823Z" fill="#A8DBA8"/>
<path d="M213.62 181.453C196.609 159.177 173.41 142.408 146.923 133.242C120.436 124.075 91.8353 122.917 64.6939 129.912L93.6053 242.141C101.283 271.759 120.365 297.137 146.686 312.738C173.007 328.339 204.43 332.895 234.098 325.413C214.045 280.256 206.955 230.41 213.62 181.453Z" fill="#79BD9A"/>
<path d="M225.755 124.783L216.543 182.897C208.509 205.129 216.399 256.699 216.399 256.699L220.885 289.565C213.868 286.971 236.527 318.492 229.873 315.073C243.761 350.407 265.028 382.37 292.254 408.829C319.48 435.287 352.039 455.632 387.755 468.503L430.16 351.151C445.755 308.027 449.996 261.616 442.477 216.38C434.958 171.143 415.931 128.6 387.224 92.8397C352.751 64.3708 280.623 -18.3659 263.855 27.8023L225.755 124.783Z" fill="#CFF09E"/>
<path d="M261.177 5.78397L218.772 123.136C214.235 135.644 210.644 148.475 208.029 161.521C189.399 142.684 166.156 129.061 140.617 122.011C115.079 114.961 88.1387 114.731 62.4836 121.343C61.3464 121.628 60.2767 122.134 59.3356 122.833C58.3945 123.532 57.6005 124.41 56.9992 125.416C56.3979 126.423 56.001 127.538 55.8312 128.698C55.6615 129.858 55.7223 131.04 56.0101 132.176L84.9518 244.321C89.4895 262.123 97.9212 278.696 109.639 292.845C121.357 306.994 136.068 318.366 152.713 326.141C132.394 331.756 112.984 340.252 95.0748 351.371L4.20792 407.713C3.20736 408.333 2.33939 409.144 1.6541 410.101C0.968804 411.057 0.479759 412.14 0.215182 413.287C-0.0493926 414.434 -0.084262 415.622 0.112584 416.782C0.309433 417.942 0.734104 419.052 1.36209 420.047C16.7976 444.914 36.9811 466.496 60.7595 483.561C84.5378 500.626 111.445 512.84 139.945 519.503C168.444 526.167 197.977 527.151 226.857 522.398C255.737 517.646 283.397 507.25 308.258 491.805L353.851 463.455C363.863 468.55 374.173 473.035 384.726 476.886C384.726 476.886 385.229 477.067 385.48 477.158C397.196 485.756 409.582 493.4 422.519 500.019C423.566 500.57 424.712 500.907 425.891 501.01C427.069 501.114 428.256 500.982 429.383 500.621C430.51 500.261 431.554 499.68 432.454 498.912C433.354 498.145 434.093 497.205 434.626 496.149L435.02 495.059C435.777 493.019 435.761 490.772 434.975 488.743C434.19 486.713 432.689 485.041 430.756 484.042C419.606 478.323 408.877 471.818 398.651 464.575L405.497 445.631C410.684 450.159 414.979 454.27 418.909 458.343C420.529 460.053 422.761 461.051 425.115 461.121C427.469 461.19 429.756 460.325 431.474 458.714C432.52 457.784 433.307 456.599 433.759 455.275C434.233 453.761 434.294 452.148 433.936 450.603C433.578 449.058 432.814 447.636 431.723 446.484C426.278 440.959 420.546 435.724 414.551 430.802C413.651 430.027 412.614 429.428 411.494 429.034L438.542 354.18C463.446 285.263 459.952 209.276 428.829 142.935C397.707 76.5942 341.505 25.3338 272.588 0.430621C270.365 -0.372707 267.914 -0.260001 265.774 0.743986C263.634 1.74791 261.98 3.56083 261.177 5.78397ZM102.259 239.961L75.6346 136.614C99.3788 132.192 123.878 134.284 146.528 142.669C169.178 151.054 189.134 165.418 204.275 184.236C200.074 219.585 202.769 255.413 212.209 289.737C200.035 282.678 189.383 273.272 180.875 262.063C172.366 250.854 166.168 238.066 162.643 224.442C162.361 223.296 161.854 222.218 161.152 221.27C160.45 220.322 159.567 219.523 158.554 218.919C157.541 218.314 156.418 217.917 155.25 217.75C154.082 217.583 152.893 217.65 151.751 217.946C150.609 218.242 149.538 218.762 148.598 219.475C147.659 220.189 146.87 221.081 146.279 222.102C145.687 223.122 145.303 224.25 145.151 225.42C144.998 226.589 145.079 227.778 145.389 228.916C150.358 247.794 159.687 265.242 172.625 279.859C185.564 294.475 201.751 305.853 219.886 313.076L221.793 318.029C211.517 317.587 201.223 317.857 190.985 318.837C170.059 315.924 150.464 306.878 134.673 292.84C118.883 278.802 107.603 260.402 102.259 239.961ZM298.74 476.709C253.862 504.543 199.974 513.984 148.306 503.064C96.6388 492.145 51.1786 461.707 21.4001 418.095L104.6 366.185C141.995 343.025 185.892 332.617 229.704 336.524C236.547 350.804 244.61 364.466 253.803 377.359C241.585 378.318 229.466 380.278 217.569 383.22L188.29 367.996C187.237 367.466 186.09 367.149 184.914 367.062C183.738 366.976 182.557 367.122 181.438 367.492C180.318 367.861 179.283 368.448 178.391 369.218C177.498 369.988 176.766 370.927 176.236 371.98C175.706 373.033 175.389 374.18 175.302 375.356C175.216 376.531 175.362 377.713 175.732 378.832C176.102 379.951 176.688 380.987 177.458 381.879C178.229 382.772 179.167 383.504 180.22 384.034L192.942 390.526C178.95 395.696 165.536 402.315 152.921 410.276C150.923 411.518 149.496 413.499 148.953 415.788C148.41 418.077 148.794 420.488 150.022 422.496C151.342 424.382 153.341 425.685 155.6 426.131C157.86 426.576 160.204 426.13 162.141 424.885C169.641 420.282 177.449 416.2 185.509 412.669C181.998 420.233 180.304 428.513 180.563 436.849C180.543 438.051 180.768 439.246 181.222 440.359C181.677 441.473 182.352 442.483 183.208 443.329C184.063 444.175 185.081 444.839 186.199 445.281C187.318 445.723 188.515 445.934 189.717 445.901C190.92 445.868 192.103 445.593 193.196 445.09C194.289 444.588 195.269 443.87 196.077 442.978C196.885 442.087 197.505 441.042 197.898 439.905C198.291 438.768 198.45 437.563 198.365 436.363C198.225 430.373 199.528 424.436 202.166 419.055C204.803 413.674 208.696 409.007 213.517 405.447L219.98 400.675C232.265 397.506 244.823 395.507 257.485 394.706C249.243 399.504 242.247 406.177 237.065 414.183C231.884 422.19 228.661 431.305 227.66 440.789C227.408 441.988 227.406 443.226 227.653 444.426C227.901 445.625 228.393 446.761 229.1 447.762C229.806 448.763 230.711 449.607 231.758 450.243C232.805 450.879 233.972 451.291 235.186 451.456C236.4 451.62 237.635 451.533 238.813 451.199C239.992 450.864 241.089 450.291 242.036 449.514C242.983 448.737 243.759 447.773 244.317 446.682C244.875 445.592 245.202 444.398 245.278 443.175C246.23 434.422 249.843 426.171 255.63 419.536C261.417 412.9 269.099 408.198 277.642 406.064C294.908 424.554 314.616 440.602 336.219 453.766L298.74 476.709ZM421.778 348.122L383.855 453.068C358.183 431.798 336.93 405.702 321.298 376.256L321.479 375.753C323.34 364.493 328.431 354.015 336.135 345.594C343.838 337.173 353.821 331.171 364.871 328.317C366.287 327.959 367.592 327.259 368.674 326.278C369.755 325.297 370.579 324.066 371.073 322.692C371.66 321.004 371.725 319.179 371.261 317.453C370.667 315.165 369.189 313.207 367.152 312.008C365.115 310.81 362.685 310.47 360.397 311.063C349.497 313.892 339.352 319.081 330.681 326.265C322.009 333.449 315.023 342.451 310.216 352.634C307.614 346.198 305.378 339.798 303.064 333.087C301.938 329.647 301.01 326.184 300.058 322.523L305.874 306.429C311.68 289.959 323.328 276.192 338.61 267.74C353.892 259.288 371.744 256.738 388.782 260.574C390.894 260.929 393.064 260.511 394.893 259.397C396.723 258.283 398.09 256.547 398.745 254.507L399.108 253.502C399.383 252.353 399.426 251.161 399.236 249.995C399.045 248.829 398.625 247.713 398 246.711C397.374 245.709 396.556 244.841 395.592 244.158C394.628 243.475 393.538 242.991 392.385 242.733C372.981 238.273 352.64 240.486 334.649 249.014C316.658 257.543 302.068 271.889 293.238 289.733C291.443 277.097 290.603 264.343 290.724 251.581L293.294 242.369C297.064 228.89 304.51 216.726 314.801 207.238C325.091 197.751 337.819 191.315 351.56 188.652C353.065 188.365 354.47 187.695 355.64 186.707C356.811 185.719 357.707 184.446 358.242 183.011C358.785 181.506 358.914 179.883 358.613 178.312C358.17 175.99 356.823 173.94 354.868 172.612C352.914 171.283 350.511 170.786 348.19 171.228C328.106 175.141 309.876 185.578 296.333 200.916C301.262 178.354 309.145 156.539 319.777 136.037C320.318 134.988 320.646 133.843 320.745 132.667C320.843 131.49 320.709 130.306 320.349 129.182C319.99 128.058 319.413 127.015 318.65 126.114C317.888 125.213 316.956 124.471 315.907 123.93C314.858 123.389 313.712 123.06 312.536 122.962C311.36 122.864 310.176 122.998 309.052 123.358C307.927 123.717 306.885 124.294 305.984 125.056C305.083 125.819 304.34 126.751 303.8 127.8C286.787 160.623 276.55 196.533 273.699 233.393L260.963 224.053C259.018 222.621 256.583 222.02 254.194 222.384C251.806 222.747 249.66 224.044 248.228 225.99C246.796 227.935 246.195 230.37 246.559 232.759C246.922 235.147 248.219 237.293 250.165 238.725L272.676 255.105C272.777 271.056 274.256 286.969 277.098 302.665L256.143 288.27C254.113 286.933 251.635 286.457 249.254 286.948C246.873 287.438 244.784 288.854 243.447 290.884C242.11 292.915 241.635 295.393 242.125 297.774C242.616 300.155 244.032 302.244 246.062 303.581L282.83 328.239C283.842 331.732 284.771 335.195 285.92 338.832C297.226 374.448 315.665 407.39 340.112 435.651C290.38 404.122 252.904 356.557 233.887 300.828C214.87 245.099 215.452 184.547 235.536 129.194L274.913 20.2242C337.134 45.1657 387.232 93.305 414.633 154.483C442.035 215.661 444.596 285.091 421.778 348.122Z" fill="#3B8686"/>
</g>
<defs>
<clipPath id="clip0">
<rect x="-108" y="450.468" width="570.418" height="570.418" transform="rotate(-70.1326 -108 450.468)" fill="white"/>
</clipPath>
</defs>
</svg>
