<svg width="456" height="395" viewBox="0 0 456 395" fill="none" xmlns="http://www.w3.org/2000/svg">
<g clip-path="url(#clip0)">
<path d="M32.0789 390.899L-23.9084 301.099C-53.6059 253.466 -63.1649 195.986 -50.4825 141.305C-37.8001 86.624 -3.91518 39.2206 43.718 9.52312L99.7053 99.3236C129.403 146.957 138.962 204.436 126.279 259.117C113.597 313.798 79.7121 361.202 32.0789 390.899Z" fill="#A8DBA8"/>
<path d="M275.423 211.607C297.424 194.737 313.966 171.759 322.982 145.542C331.998 119.325 333.088 91.0331 326.117 64.2002L215.164 93.0131C185.883 100.665 160.817 119.588 145.437 145.652C130.056 171.717 125.609 202.807 133.067 232.138C177.695 212.217 226.985 205.108 275.423 211.607Z" fill="#79BD9A"/>
<path d="M331.5 223.5L274 214.5C251.995 206.597 201 214.5 201 214.5L168.5 219C171.052 212.055 139.917 234.528 143.287 227.94C108.364 241.745 76.7889 262.842 50.6704 289.823C24.5519 316.804 4.49118 349.048 -8.17181 384.4L107.986 426.119C150.672 441.461 196.586 445.567 241.316 438.043C286.047 430.518 328.09 411.616 363.407 383.153C391.5 349 473.199 277.496 427.5 261L331.5 223.5Z" fill="#CFF09E"/>
<path d="M449.274 258.309L333.116 216.59C320.735 212.127 308.037 208.6 295.128 206.038C313.724 187.574 327.154 164.557 334.079 139.283C341.003 114.009 341.179 87.3609 334.589 61.9974C334.305 60.8731 333.802 59.816 333.109 58.8864C332.416 57.9569 331.546 57.1733 330.549 56.5804C329.553 55.9876 328.449 55.5971 327.301 55.4315C326.154 55.2659 324.985 55.3283 323.861 55.6151L212.991 84.4578C195.392 88.9804 179.015 97.3524 165.042 108.97C151.07 120.587 139.85 135.161 132.191 151.64C126.598 131.553 118.157 112.37 107.124 94.6766L51.22 4.90588C50.6053 3.91739 49.801 3.06042 48.8534 2.38442C47.9058 1.70842 46.8336 1.22677 45.6989 0.967273C44.5642 0.707778 43.3893 0.67557 42.242 0.872511C41.0948 1.06945 39.9979 1.49164 39.0147 2.11471C14.4477 17.4303 -6.86133 37.4358 -23.6951 60.9885C-40.5288 84.5412 -52.5575 111.18 -59.0939 139.382C-65.6304 167.585 -66.5466 196.799 -61.7901 225.355C-57.0337 253.912 -46.6979 281.252 -31.3731 305.813L-3.24331 350.856C-8.26376 360.768 -12.6803 370.975 -16.4688 381.42C-16.4688 381.42 -16.6476 381.918 -16.737 382.167C-25.2184 393.772 -32.7562 406.038 -39.278 418.847C-39.821 419.883 -40.1522 421.018 -40.2523 422.184C-40.3524 423.35 -40.2193 424.524 -39.8608 425.638C-39.5024 426.752 -38.9257 427.783 -38.1644 428.672C-37.4032 429.561 -36.4726 430.289 -35.4269 430.815L-34.3483 431.202C-32.3287 431.947 -30.1064 431.927 -28.1004 431.146C-26.0945 430.366 -24.4435 428.878 -23.4588 426.964C-17.8236 415.924 -11.4095 405.299 -4.26522 395.17L14.486 401.905C10.0173 407.044 5.95939 411.301 1.93767 415.196C0.249794 416.802 -0.733717 419.011 -0.797874 421.34C-0.862031 423.669 -0.00163686 425.929 1.59528 427.625C2.51714 428.658 3.69046 429.434 5.00114 429.879C6.49947 430.344 8.09491 430.402 9.62278 430.045C11.1506 429.688 12.5556 428.93 13.6926 427.848C19.1471 422.452 24.3138 416.772 29.1711 410.832C29.9355 409.941 30.5266 408.914 30.9141 407.805L105.006 434.416C173.222 458.916 248.376 455.314 313.936 424.402C379.496 393.49 430.091 337.801 454.591 269.586C455.381 267.385 455.265 264.961 454.268 262.846C453.271 260.731 451.474 259.099 449.274 258.309ZM217.337 101.568L319.509 75.0348C323.929 98.5123 321.907 122.749 313.656 145.169C305.406 167.589 291.236 187.356 272.653 202.368C237.68 198.281 202.246 201.015 168.314 210.419C175.272 198.363 184.556 187.81 195.627 179.372C206.698 170.934 219.334 164.779 232.804 161.266C233.936 160.985 235.001 160.481 235.938 159.785C236.874 159.089 237.663 158.214 238.259 157.211C238.855 156.208 239.245 155.096 239.408 153.941C239.571 152.785 239.503 151.609 239.208 150.48C238.913 149.351 238.397 148.292 237.689 147.365C236.982 146.437 236.097 145.659 235.087 145.075C234.076 144.492 232.96 144.115 231.803 143.966C230.645 143.817 229.47 143.9 228.345 144.209C209.682 149.16 192.441 158.421 178.008 171.247C163.575 184.073 152.353 200.106 145.243 218.058L140.348 219.953C140.765 209.788 140.478 199.607 139.489 189.482C142.33 168.777 151.241 149.378 165.095 133.732C178.95 118.086 197.129 106.894 217.337 101.568ZM-16.4595 296.369C-44.0771 252.032 -53.519 198.748 -42.8176 147.621C-32.1161 96.4943 -2.09682 51.4697 40.9838 21.9311L92.4895 104.127C115.47 141.07 125.849 184.47 122.068 227.813C107.957 234.61 94.459 242.611 81.7239 251.729C80.752 239.646 78.7899 227.662 75.8575 215.9L90.8593 186.91C91.3814 185.868 91.693 184.732 91.7764 183.569C91.8597 182.406 91.7132 181.238 91.3451 180.132C90.977 179.025 90.3946 178.002 89.6311 177.121C88.8677 176.24 87.9381 175.517 86.8955 174.995C85.8529 174.473 84.7176 174.162 83.5546 174.078C82.3915 173.995 81.2235 174.141 80.117 174.509C79.0106 174.878 77.9876 175.46 77.1062 176.223C76.2249 176.987 75.5026 177.916 74.9805 178.959L68.583 191.555C63.4426 177.725 56.8695 164.47 48.9711 152.007C47.739 150.033 45.7762 148.626 43.5109 148.093C41.2456 147.56 38.8615 147.945 36.8785 149.163C35.0147 150.472 33.7301 152.452 33.2938 154.688C32.8576 156.924 33.3036 159.241 34.5384 161.156C39.1061 168.565 43.1582 176.28 46.6661 184.246C39.1778 180.787 30.9843 179.127 22.7403 179.4C21.5506 179.383 20.3697 179.607 19.269 180.059C18.1682 180.51 17.1702 181.18 16.3352 182.028C15.5002 182.876 14.8455 183.884 14.4104 184.991C13.9753 186.099 13.7689 187.283 13.8037 188.472C13.8384 189.661 14.1135 190.831 14.6125 191.912C15.1115 192.992 15.8239 193.96 16.707 194.757C17.59 195.555 18.6253 196.165 19.7506 196.552C20.8759 196.939 22.0678 197.094 23.2545 197.007C29.1799 196.857 35.0544 198.135 40.3819 200.733C45.7094 203.332 50.3334 207.174 53.8635 211.935L58.5963 218.318C61.7547 230.464 63.7558 242.882 64.573 255.405C59.8113 247.261 53.1976 240.355 45.268 235.244C37.3385 230.134 28.3163 226.965 18.933 225.993C17.7468 225.746 16.5224 225.746 15.3363 225.993C14.1501 226.24 13.0276 226.729 12.0389 227.43C11.0503 228.13 10.2166 229.027 9.58993 230.064C8.9633 231.101 8.55718 232.256 8.39691 233.457C8.23664 234.658 8.32564 235.879 8.65841 237.044C8.99118 238.21 9.56054 239.293 10.331 240.229C11.1014 241.164 12.0563 241.93 13.1361 242.48C14.2159 243.03 15.3975 243.351 16.607 243.423C25.2667 244.348 33.4347 247.906 40.0095 253.617C46.5843 259.329 51.2497 266.919 53.3767 275.364C35.1213 292.478 19.2851 312.002 6.30585 333.396L-16.4595 296.369ZM110.966 417.822L7.08764 380.513C28.0772 355.08 53.849 334.007 82.9451 318.488L83.4429 318.667C94.5842 320.486 104.957 325.501 113.302 333.105C121.646 340.708 127.602 350.571 130.447 361.496C130.803 362.895 131.498 364.185 132.47 365.253C133.443 366.321 134.662 367.134 136.022 367.62C137.693 368.196 139.499 368.257 141.205 367.795C143.467 367.203 145.401 365.738 146.582 363.72C147.764 361.703 148.095 359.299 147.504 357.037C144.685 346.261 139.533 336.237 132.41 327.673C125.288 319.109 116.37 312.216 106.288 307.482C112.65 304.895 118.976 302.671 125.61 300.37C129.01 299.249 132.433 298.324 136.052 297.376L151.983 303.098C168.285 308.809 181.924 320.304 190.314 335.404C198.704 350.503 201.261 368.157 197.499 385.016C197.152 387.106 197.57 389.251 198.675 391.059C199.781 392.866 201.5 394.215 203.519 394.859L204.514 395.216C205.651 395.486 206.83 395.526 207.983 395.336C209.136 395.146 210.239 394.728 211.229 394.107C212.219 393.487 213.076 392.675 213.75 391.721C214.423 390.766 214.9 389.687 215.153 388.546C219.527 369.344 217.299 349.229 208.829 331.45C200.359 313.671 186.141 299.267 168.473 290.567C180.969 288.768 193.582 287.912 206.206 288.007L215.322 290.532C228.662 294.234 240.709 301.576 250.112 311.737C259.516 321.897 265.907 334.475 268.568 348.061C268.854 349.548 269.52 350.937 270.499 352.093C271.479 353.249 272.74 354.133 274.16 354.659C275.65 355.194 277.255 355.317 278.809 355.017C281.104 354.575 283.13 353.238 284.44 351.302C285.75 349.366 286.237 346.989 285.795 344.694C281.886 324.835 271.528 306.824 256.33 293.457C278.657 298.29 300.25 306.045 320.549 316.522C321.588 317.055 322.721 317.378 323.885 317.473C325.049 317.568 326.22 317.432 327.331 317.075C328.442 316.717 329.472 316.144 330.362 315.388C331.252 314.633 331.984 313.709 332.517 312.671C333.05 311.632 333.373 310.498 333.468 309.335C333.563 308.171 333.428 307 333.07 305.889C332.713 304.778 332.14 303.748 331.384 302.858C330.629 301.968 329.705 301.235 328.666 300.702C296.167 283.938 260.628 273.881 224.163 271.132L233.377 258.517C234.79 256.59 235.379 254.18 235.015 251.818C234.651 249.457 233.364 247.336 231.437 245.923C229.51 244.511 227.1 243.922 224.738 244.286C222.377 244.649 220.256 245.937 218.844 247.864L202.686 270.162C186.908 270.293 171.171 271.787 155.651 274.627L169.849 253.873C171.168 251.862 171.633 249.41 171.144 247.056C170.654 244.702 169.249 242.638 167.239 241.32C165.228 240.001 162.776 239.536 160.421 240.025C158.067 240.515 156.004 241.92 154.686 243.93L130.366 280.346C126.913 281.354 123.489 282.279 119.894 283.423C84.6866 294.675 52.1386 312.976 24.2321 337.212C55.3227 287.96 102.299 250.8 157.385 231.883C212.471 212.966 272.366 213.425 327.156 233.184L435.017 271.923C410.466 333.516 362.947 383.161 302.487 410.383C242.027 437.604 173.356 440.271 110.966 417.822Z" fill="#3B8686"/>
</g>
<defs>
<clipPath id="clip0">
<rect x="8.71419" y="-106" width="564.218" height="564.218" transform="rotate(19.756 8.71419 -106)" fill="white"/>
</clipPath>
</defs>
</svg>
